FILE "KISS-Site 04 (2000)(Tomy)(JP).img" BINARY
  TRACK 01 MODE2/2352
    INDEX 01 00:00:00
  TRACK 02 MODE2/2352
    INDEX 00 00:04:10
    INDEX 01 00:06:10
  TRACK 03 MODE2/2352
    INDEX 00 00:18:21
    INDEX 01 00:20:21
  TRACK 04 MODE2/2352
    INDEX 00 04:50:12
    INDEX 01 04:52:12
